<?xml version="1.0" encoding="utf-8"?>
<!-- Generator: Adobe Illustrator 24.0.1, SVG Export Plug-In . SVG Version: 6.00 Build 0)  -->
<svg version="1.1" id="Layer_1" xmlns="http://www.w3.org/2000/svg" xmlns:xlink="http://www.w3.org/1999/xlink" x="0px" y="0px"
	 viewBox="0 0 4000 4000" style="enable-background:new 0 0 4000 4000;" xml:space="preserve">
<style type="text/css">
	.st0{fill:#FFFFFF;}
</style>
<path class="st0" d="M1957.2,3912.6c-285.1-8.2-569.5-110.4-802.9-335.1c-148.4-142.8-244.7-316-273.5-522.3
	c-26.8-192,13.7-372.6,100.1-543.9c49.1-97.4,111.5-185.9,186.7-264.8c20.7-21.7,20.2-35.9,2.2-59
	c-177.5-228.3-319-478.1-432.9-743.3c-85.9-199.9-153-405.7-171.4-624.3c-15.3-182.3-5.8-361.8,70-532.2
	c21.4-48.1,48.9-92.5,86.3-130.3C789.4,89.2,871.5,76.3,961,96.2c113.1,25.3,208.6,85.2,295.5,159
	c161.3,137.2,273.5,310.6,360,501.7c83.7,184.8,140,378.4,180.9,576.6c35.3,171,60.8,343.4,72.1,517.7c1.4,22,6.3,29.7,30.8,25.9
	c65.7-10.1,132-8.6,197.8,0.6c22.4,3.1,29.4-2.4,31.2-26.1c16.6-219.1,48.4-435.8,101.3-649.4c43.4-175.3,100.1-345.6,180.1-507.5
	c87.2-176.4,198.1-335.2,352.7-459.9c86.8-69.9,181.9-123.6,293.8-142.9c110.3-19,194.1,21.7,256.1,111.6
	c61.7,89.4,92.7,190.6,111.4,296.5c38.6,219.2,2.6,431.9-57.4,641.6c-84.3,294.4-220.9,564.9-384.6,822.5
	c-50.7,79.9-103.9,158.2-163.5,231.7c-14,17.3-10.7,27.2,2,41.5c42.6,48.1,84.6,96.8,121,150c111.9,163.8,179.9,343.2,181.2,542.9
	c1.5,228.6-82.8,426.6-232.4,596.8c-160.8,182.9-367.4,288.9-600.6,348.2C2192.9,3900.1,2093.7,3911.1,1957.2,3912.6L1957.2,3912.6z
	 M2001.2,3109.6c0,0.2,0,0.3,0,0.5c-20.2,0-40.4-0.3-60.6,0.1c-20.2,0.4-40.5-0.1-60.4,2.5c-60.3,8-84.7,62.7-51.6,114
	c25.2,39.1,59.3,69.8,95.3,98.4c12.2,9.7,14.4,17.6,6.2,32c-15.7,27.3-34.7,51.8-54.4,75.9c-29.4,35.9-65.9,63.4-103.7,89.8
	c-19.4,13.6-30.7,32-18.9,56.8c11.2,23.4,35.6,33.5,62.3,26.7c13.6-3.5,25.5-10.2,36.7-18.2c47.5-33.7,88.6-74.1,125.2-119.2
	c21.5-26.5,21.7-26.6,42-0.1c34.3,44.7,74.1,83.8,119.8,116.8c15,10.9,31,20.1,49.5,22.8c22.9,3.4,42.7-4.2,53.1-25.4
	c9.4-19.1,5.2-37.9-11.5-52.2c-11.8-10.1-24.3-19.6-36.8-28.8c-51.1-37.4-91.4-84.3-124.6-138c-11.8-19.1-11.5-31.2,7.8-45
	c32.2-23,59.9-51.2,84.3-82.6c20.3-26.1,27-54.5,11.9-84.8c-15.1-30.4-42.7-41.4-75.1-41.9
	C2065.4,3109.3,2033.3,3109.6,2001.2,3109.6L2001.2,3109.6z M2698.2,2755.6c1-77.8-61.1-140.7-140.6-142.4
	c-79.7-1.8-145.3,60.4-147.2,139.4c-2,79,63.8,146.5,143.1,147C2635.2,2900.1,2697.1,2838.4,2698.2,2755.6L2698.2,2755.6z
	 M1583.8,2757c0.1-80-62.7-143.1-143.2-143.9c-80.5-0.8-144.7,62-144.8,141.6c-0.2,80.4,65.1,145.1,145.8,144.5
	C1519.6,2898.6,1583.7,2834.6,1583.8,2757z"/>
</svg>
