<?xml version="1.0" encoding="UTF-8"?>
<svg id="Layer_1" xmlns="http://www.w3.org/2000/svg" version="1.1" viewBox="0 0 4000 4000">
  <!-- Generator: Adobe Illustrator 29.0.0, SVG Export Plug-In . SVG Version: 2.1.0 Build 186)  -->
  <path d="M1957.2,3912.64c-285.07-8.18-569.47-110.42-802.95-335.14-148.38-142.8-244.71-316.01-273.5-522.34-26.79-191.98,13.71-372.55,100.09-543.94,49.07-97.37,111.48-185.95,186.69-264.83,20.7-21.71,20.18-35.94,2.24-59.02-177.49-228.33-318.95-478.09-432.92-743.25-85.91-199.87-153-405.73-171.37-624.34-15.32-182.32-5.81-361.83,69.97-532.21,21.38-48.06,48.91-92.54,86.32-130.25,67.59-68.14,149.78-81.06,239.27-61.07,113.1,25.27,208.65,85.18,295.45,159.01,161.34,137.23,273.48,310.59,360.01,501.72,83.67,184.81,140.01,378.36,180.94,576.64,35.29,170.97,60.76,343.37,72.05,517.66,1.42,21.96,6.34,29.69,30.78,25.94,65.71-10.07,131.99-8.59,197.79.6,22.44,3.13,29.43-2.37,31.23-26.12,16.57-219.1,48.35-435.77,101.3-649.42,43.44-175.3,100.06-345.56,180.11-507.5,87.18-176.37,198.07-335.23,352.69-459.86,86.77-69.94,181.87-123.62,293.83-142.94,110.34-19.04,194.12,21.74,256.14,111.55,61.74,89.41,92.67,190.55,111.35,296.55,38.61,219.17,2.61,431.89-57.42,641.59-84.27,294.37-220.92,564.94-384.56,822.53-50.74,79.87-103.92,158.15-163.5,231.69-14.04,17.33-10.71,27.16,1.96,41.46,42.64,48.11,84.64,96.81,121,150.04,111.91,163.82,179.9,343.24,181.24,542.94,1.54,228.64-82.77,426.62-232.44,596.81-160.84,182.89-367.45,288.95-600.56,348.2-97.5,24.78-196.77,35.77-333.22,37.32ZM2001.15,3109.6c0,.17,0,.33,0,.5-20.2,0-40.4-.3-60.59.08-20.17.38-40.53-.15-60.44,2.5-60.29,8.03-84.67,62.68-51.59,113.97,25.22,39.1,59.27,69.81,95.27,98.4,12.19,9.68,14.42,17.59,6.16,31.98-15.65,27.27-34.67,51.76-54.44,75.9-29.41,35.92-65.95,63.39-103.68,89.79-19.43,13.6-30.74,31.99-18.89,56.82,11.16,23.4,35.62,33.51,62.34,26.68,13.63-3.48,25.46-10.2,36.73-18.19,47.49-33.69,88.61-74.08,125.22-119.21,21.48-26.48,21.73-26.62,42.03-.14,34.3,44.74,74.09,83.79,119.79,116.8,15.03,10.86,31.04,20.11,49.52,22.8,22.95,3.35,42.69-4.2,53.13-25.44,9.4-19.13,5.2-37.89-11.5-52.18-11.83-10.12-24.25-19.59-36.82-28.78-51.15-37.36-91.4-84.26-124.64-137.98-11.83-19.12-11.54-31.22,7.75-44.99,32.21-23,59.9-51.24,84.27-82.6,20.27-26.08,26.97-54.52,11.88-84.78-15.14-30.36-42.72-41.43-75.12-41.85-32.13-.42-64.26-.09-96.4-.09ZM2698.18,2755.56c.97-77.82-61.08-140.69-140.59-142.44-79.66-1.75-145.25,60.36-147.24,139.43-1.99,78.98,63.78,146.52,143.15,147,81.7.5,143.65-61.16,144.68-143.99ZM1583.81,2757.01c.13-79.98-62.69-143.1-143.2-143.87-80.52-.77-144.66,61.97-144.81,141.63-.15,80.44,65.13,145.15,145.75,144.48,78.07-.65,142.14-64.7,142.26-142.24Z"/>
</svg>